<svg xmlns="http://www.w3.org/2000/svg" version="1.1" xmlns:xlink="http://www.w3.org/1999/xlink" xmlns:svgjs="http://svgjs.dev/svgjs" width="1500" height="1500" viewBox="0 0 1500 1500"><rect width="1500" height="1500" fill="#000000"></rect><g transform="matrix(0.6666666666666666,0,0,0.6666666666666666,249.39393939393938,582.6793267542065)"><svg viewBox="0 0 396 132" data-background-color="#fafafa" preserveAspectRatio="xMidYMid meet" height="500" width="1500" xmlns="http://www.w3.org/2000/svg" xmlns:xlink="http://www.w3.org/1999/xlink"><g id="tight-bounds" transform="matrix(1,0,0,1,0.2400000000000091,0.25898660533425755)"><svg viewBox="0 0 395.52 131.4820267893315" height="131.4820267893315" width="395.52"><g><svg viewBox="0 0 630.9132278131287 209.73338875674915" height="131.4820267893315" width="395.52"><g transform="matrix(1,0,0,1,0,62.270855077642885)"><svg viewBox="0 0 395.52 85.19167860146338" height="85.19167860146338" width="395.52"><g id="textblocktransform"><svg viewBox="0 0 395.52 85.19167860146338" height="85.19167860146338" width="395.52" id="textblock"><g><svg viewBox="0 0 395.52 54.34656436143361" height="54.34656436143361" width="395.52"><g transform="matrix(1,0,0,1,0,0)"><svg width="395.52" viewBox="3.78 -33.48 247.6 34.029999999999994" height="54.34656436143361" data-palette-color="#e77917"><path d="M14.48 0L14.48 0 6.58 0 6.58-3.5 14.33-3.5Q18.57-3.5 20.71-5.81 22.85-8.13 22.85-12.43L22.85-12.43 22.85-19.55Q22.85-23.88 20.71-26.18 18.57-28.48 14.33-28.48L14.33-28.48 6.55-28.48 6.55-31.95 14.48-31.95Q20.68-31.95 23.85-28.76 27.03-25.58 27.03-19.58L27.03-19.58 27.03-12.4Q27.03-6.43 23.85-3.21 20.68 0 14.48 0ZM7.88-31.95L7.88 0 3.78 0 3.78-31.95 7.88-31.95ZM36.72-14.93L36.72-14.93 35.8-18.05 36.8-18.1Q37.6-21.2 39.55-22.99 41.5-24.78 44.72-24.78L44.72-24.78Q45.52-24.78 46.16-24.65 46.8-24.53 47.3-24.35L47.3-24.35 47.55-20.43Q46.92-20.63 46.16-20.75 45.4-20.88 44.47-20.88L44.47-20.88Q41.72-20.88 39.69-19.35 37.65-17.82 36.72-14.93ZM36.92-16.9L36.92 0 32.87 0 32.87-24.4 36.82-24.4 36.62-17.2 36.92-16.9ZM61.77 0.55L61.77 0.55Q56.2 0.55 53.37-2.18 50.55-4.9 50.55-9.98L50.55-9.98 50.55-14.33Q50.55-19.48 53.17-22.26 55.8-25.05 60.85-25.05L60.85-25.05Q64.25-25.05 66.52-23.79 68.8-22.53 69.95-20.2 71.09-17.88 71.09-14.65L71.09-14.65 71.09-13.75Q71.09-12.95 71.03-12.15 70.97-11.35 70.87-10.58L70.87-10.58 67.15-10.58Q67.2-11.78 67.21-12.85 67.22-13.93 67.22-14.83L67.22-14.83Q67.22-17.05 66.51-18.59 65.8-20.13 64.38-20.94 62.97-21.75 60.85-21.75L60.85-21.75Q57.7-21.75 56.12-19.93 54.55-18.1 54.55-14.7L54.55-14.7 54.55-12.38 54.57-11.88 54.57-9.55Q54.57-8.03 55.02-6.8 55.47-5.58 56.43-4.69 57.4-3.8 58.88-3.34 60.37-2.88 62.42-2.88L62.42-2.88Q64.8-2.88 66.84-3.5 68.9-4.13 70.7-5.2L70.7-5.2 70.32-1.7Q68.7-0.68 66.55-0.06 64.4 0.55 61.77 0.55ZM70.02-13.63L70.02-10.58 52.67-10.58 52.67-13.63 70.02-13.63ZM94.99-15.8L94.99 0 90.97 0 91.14-5.93 90.99-6.55 90.99-14.33 91.02-15.75Q91.02-18.73 89.51-20.15 87.99-21.58 84.72-21.58L84.72-21.58Q82.09-21.58 79.91-20.83 77.72-20.08 76.02-19.07L76.02-19.07 76.39-22.53Q77.34-23.1 78.66-23.66 79.97-24.23 81.66-24.6 83.34-24.98 85.37-24.98L85.37-24.98Q87.99-24.98 89.83-24.34 91.67-23.7 92.81-22.5 93.94-21.3 94.47-19.6 94.99-17.9 94.99-15.8L94.99-15.8ZM82.57 0.53L82.57 0.53Q78.94 0.53 77.01-1.24 75.07-3 75.07-6.28L75.07-6.28 75.07-7Q75.07-10.38 77.16-12.04 79.24-13.7 83.79-14.35L83.79-14.35 91.52-15.45 91.74-12.5 84.29-11.43Q81.49-11.03 80.29-10.06 79.09-9.1 79.09-7.23L79.09-7.23 79.09-6.83Q79.09-4.9 80.28-3.88 81.47-2.85 83.84-2.85L83.84-2.85Q85.94-2.85 87.44-3.58 88.94-4.3 89.87-5.53 90.79-6.75 91.12-8.25L91.12-8.25 91.74-5.5 90.97-5.5Q90.62-3.9 89.66-2.53 88.69-1.15 86.97-0.31 85.24 0.53 82.57 0.53ZM135.72-15.73L135.72 0 131.67 0 131.67-15.28Q131.67-17.2 131.18-18.61 130.69-20.03 129.58-20.8 128.47-21.58 126.59-21.58L126.59-21.58Q124.82-21.58 123.52-20.85 122.22-20.13 121.42-18.91 120.62-17.7 120.29-16.15L120.29-16.15 119.67-19.03 120.17-19.03Q120.57-20.6 121.52-21.95 122.47-23.3 124.09-24.13 125.72-24.95 128.12-24.95L128.12-24.95Q130.84-24.95 132.5-23.88 134.17-22.8 134.94-20.74 135.72-18.68 135.72-15.73L135.72-15.73ZM105.24-18.3L105.24 0 101.19 0 101.19-24.4 105.24-24.4 105.07-18.55 105.24-18.3ZM120.47-15.85L120.47 0 116.44 0 116.44-15.28Q116.44-17.2 115.95-18.61 115.47-20.03 114.37-20.8 113.27-21.58 111.39-21.58L111.39-21.58Q109.59-21.58 108.29-20.85 106.99-20.13 106.19-18.89 105.39-17.65 105.07-16.07L105.07-16.07 104.32-18.95 105.22-18.95Q105.59-20.6 106.52-21.96 107.44-23.33 109.03-24.14 110.62-24.95 112.89-24.95L112.89-24.95Q116.27-24.95 118.03-23.2 119.79-21.45 120.24-18.1L120.24-18.1Q120.37-17.6 120.42-17.01 120.47-16.43 120.47-15.85L120.47-15.85ZM164.96-10.63L164.96-10.63 155.79-10.63 155.79-14.08 164.86-14.08Q168.14-14.08 169.61-15.71 171.09-17.35 171.09-20.23L171.09-20.23 171.09-22.4Q171.09-25.33 169.62-26.93 168.16-28.53 164.91-28.53L164.91-28.53 155.76-28.53 155.76-31.95 164.99-31.95Q170.34-31.95 172.77-29.44 175.21-26.93 175.21-22.53L175.21-22.53 175.21-20.13Q175.21-15.68 172.75-13.15 170.29-10.63 164.96-10.63ZM157.19-11.2L157.19 0 153.09 0 153.09-31.95 157.16-31.95 157.16-13.05 157.19-11.2ZM184.48-14.93L184.48-14.93 183.56-18.05 184.56-18.1Q185.36-21.2 187.31-22.99 189.26-24.78 192.48-24.78L192.48-24.78Q193.28-24.78 193.92-24.65 194.56-24.53 195.06-24.35L195.06-24.35 195.31-20.43Q194.68-20.63 193.92-20.75 193.16-20.88 192.23-20.88L192.23-20.88Q189.48-20.88 187.45-19.35 185.41-17.82 184.48-14.93ZM184.68-16.9L184.68 0 180.63 0 180.63-24.4 184.58-24.4 184.38-17.2 184.68-16.9ZM203.41-24.4L203.41 0 199.36 0 199.36-24.4 203.41-24.4ZM201.38-28.4L201.38-28.4Q200.13-28.4 199.52-29.06 198.91-29.73 198.91-30.88L198.91-30.88 198.91-31Q198.91-32.18 199.52-32.83 200.13-33.48 201.38-33.48L201.38-33.48Q202.63-33.48 203.26-32.83 203.88-32.18 203.88-31L203.88-31 203.88-30.88Q203.88-29.7 203.26-29.05 202.63-28.4 201.38-28.4ZM219.5 0.55L219.5 0.55Q214.25 0.55 211.69-2.29 209.13-5.13 209.13-10.33L209.13-10.33 209.13-14.13Q209.13-19.35 211.7-22.16 214.28-24.98 219.5-24.98L219.5-24.98Q221.05-24.98 222.33-24.69 223.6-24.4 224.62-23.94 225.63-23.48 226.33-22.98L226.33-22.98 226.68-19.45Q225.5-20.35 223.89-20.98 222.28-21.6 220.1-21.6L220.1-21.6Q216.6-21.6 214.89-19.66 213.18-17.73 213.18-14.03L213.18-14.03 213.18-10.43Q213.18-6.8 214.89-4.85 216.6-2.9 220.1-2.9L220.1-2.9Q222.35-2.9 223.99-3.53 225.63-4.15 226.9-5.05L226.9-5.05 226.53-1.48Q225.43-0.73 223.65-0.09 221.88 0.55 219.5 0.55ZM242.05 0.55L242.05 0.55Q236.48 0.55 233.65-2.18 230.83-4.9 230.83-9.98L230.83-9.98 230.83-14.33Q230.83-19.48 233.45-22.26 236.08-25.05 241.13-25.05L241.13-25.05Q244.53-25.05 246.8-23.79 249.08-22.53 250.23-20.2 251.38-17.88 251.38-14.65L251.38-14.65 251.38-13.75Q251.38-12.95 251.31-12.15 251.25-11.35 251.15-10.58L251.15-10.58 247.43-10.58Q247.48-11.78 247.49-12.85 247.5-13.93 247.5-14.83L247.5-14.83Q247.5-17.05 246.79-18.59 246.08-20.13 244.66-20.94 243.25-21.75 241.13-21.75L241.13-21.75Q237.98-21.75 236.4-19.93 234.83-18.1 234.83-14.7L234.83-14.7 234.83-12.38 234.85-11.88 234.85-9.55Q234.85-8.03 235.3-6.8 235.75-5.58 236.71-4.69 237.68-3.8 239.16-3.34 240.65-2.88 242.7-2.88L242.7-2.88Q245.08-2.88 247.13-3.5 249.18-4.13 250.98-5.2L250.98-5.2 250.6-1.7Q248.98-0.68 246.83-0.06 244.68 0.55 242.05 0.55ZM250.3-13.63L250.3-10.58 232.95-10.58 232.95-13.63 250.3-13.63Z" opacity="1" transform="matrix(1,0,0,1,0,0)" fill="#ffffff" class="wordmark-text-0" data-fill-palette-color="primary" id="text-0"></path></svg></g></svg></g><g transform="matrix(1,0,0,1,163.310208,67.17648388962341)"><svg viewBox="0 0 232.209792 18.01519471183997" height="18.01519471183997" width="232.209792"><g transform="matrix(1,0,0,1,0,0)"><svg width="232.209792" viewBox="-1.2 -32.4 541.85 42.04" height="18.01519471183997" data-palette-color="#e77917"><path d="M24.76-15.89L24.76-15.89Q24.05-12.7 22.78-9.8 21.51-6.91 19.56-4.72 17.6-2.54 15.03-1.27 12.45 0 9.16 0L9.16 0-1.2 0 5.54-31.86 15.89-31.86Q19.14-31.86 21.19-30.55 23.24-29.25 24.24-27.05 25.24-24.85 25.34-21.97 25.44-19.09 24.76-15.89ZM21.41-15.89L21.41-15.89Q22.75-22.14 21.13-25.57 19.51-29 15.31-29L15.31-29 8.3-29 2.76-2.86 9.74-2.86Q13.94-2.86 17.02-6.25 20.09-9.64 21.41-15.89ZM52.19-22.29L50.53-19.56Q48.9-20.46 46.38-20.46L46.38-20.46Q44.33-20.46 42.56-19.58 40.79-18.7 39.37-17.27 37.94-15.84 36.94-14 35.94-12.16 35.54-10.21L35.54-10.21 33.98-2.86 39.13-2.86 38.55 0 24.9 0 25.49-2.86 30.64-2.86 34.25-19.9 29.1-19.9 29.68-22.75 38.18-22.75 36.98-17.04Q40.65-23.29 47.04-23.29L47.04-23.29Q48.8-23.29 50.02-23.07 51.24-22.85 52.19-22.29L52.19-22.29ZM77.34-10.21L57.69-10.21Q57.29-6.59 59.09-4.44 60.88-2.29 64.55-2.29L64.55-2.29Q67.08-2.29 69.31-3.34 71.53-4.39 72.9-5.96L72.9-5.96 74.87-4.35Q72.68-1.95 70.03-0.7 67.38 0.56 63.94 0.56L63.94 0.56Q61.27 0.56 59.28-0.32 57.29-1.2 56.01-2.77 54.73-4.35 54.3-6.52 53.88-8.69 54.49-11.35L54.49-11.35Q55.02-13.94 56.28-16.13 57.54-18.31 59.38-19.91 61.23-21.51 63.58-22.4 65.94-23.29 68.57-23.29L68.57-23.29Q71.48-23.29 73.43-22.31 75.39-21.34 76.48-19.62 77.58-17.9 77.75-15.5 77.92-13.11 77.34-10.21L77.34-10.21ZM58.34-13.06L74.38-13.06Q74.63-16.8 72.86-18.63 71.09-20.46 67.94-20.46L67.94-20.46Q66.33-20.46 64.85-19.93 63.37-19.41 62.13-18.43 60.88-17.46 59.88-16.08 58.88-14.7 58.34-13.06L58.34-13.06ZM80.73-6.15L80.73-6.15Q81.17-8.3 82.55-9.75 83.93-11.21 85.86-12.05 87.79-12.89 90.13-13.27 92.47-13.65 94.82-13.65L94.82-13.65Q95.72-13.65 96.43-13.62 97.14-13.6 97.78-13.55 98.43-13.5 99.05-13.43 99.68-13.35 100.48-13.26L100.48-13.26 100.82-14.89Q101.19-16.55 100.69-17.63 100.19-18.7 99.26-19.32 98.33-19.95 97.23-20.2 96.14-20.46 95.33-20.46L95.33-20.46Q92.77-20.46 90.5-19.78 88.22-19.09 86.13-17.94L86.13-17.94 85.12-20.46Q87.47-21.7 90.2-22.5 92.94-23.29 95.99-23.29L95.99-23.29Q97.82-23.29 99.53-22.81 101.24-22.34 102.43-21.35 103.63-20.36 104.13-18.75 104.63-17.14 104.17-14.89L104.17-14.89 101.02 0 97.67 0 98.48-3.81Q97.33-2.71 96.05-1.88 94.77-1.05 93.45-0.52 92.13 0 90.83 0.28 89.52 0.56 88.42 0.56L88.42 0.56Q83.93 0.56 81.97-1.17 80.02-2.91 80.73-6.15ZM89.03-2.29L89.03-2.29Q91.13-2.29 92.95-2.92 94.77-3.54 96.12-4.47 97.48-5.4 98.36-6.45 99.24-7.5 99.43-8.35L99.43-8.35 99.87-10.5Q98.28-10.74 96.78-10.77 95.28-10.79 94.18-10.79L94.18-10.79Q92.38-10.79 90.65-10.55 88.93-10.3 87.58-9.75 86.22-9.2 85.27-8.33 84.32-7.45 84.07-6.15L84.07-6.15Q83.73-4.71 84.88-3.5 86.03-2.29 89.03-2.29ZM132.97-16.36L129.53 0 126.16 0 129.63-16.36Q130.02-18.31 129.57-19.38 129.12-20.46 127.82-20.46L127.82-20.46Q125.92-20.46 124.6-18.46 123.28-16.46 122.52-12.84L122.52-12.84 119.81 0 116.47 0 119.91-16.36Q120.33-18.31 119.85-19.38 119.37-20.46 118.08-20.46L118.08-20.46Q116.86-20.46 116.02-19.75 115.18-19.04 114.55-17.94 113.93-16.85 113.53-15.5 113.12-14.16 112.83-12.84L112.83-12.84 110.12 0 106.78 0 111.56-22.75 114.93-22.75 114.22-19.46Q116.13-23.29 119.62-23.29L119.62-23.29Q122.96-23.29 123.43-19.95L123.43-19.95Q125.82-23.29 128.87-23.29L128.87-23.29Q131.78-23.29 132.75-21.57 133.73-19.85 132.97-16.36L132.97-16.36ZM185.95-9.11L185.95-9.11Q184.99-4.54 181.58-2.27 178.16 0 172.71 0L172.71 0 162.56 0 169.3-31.86 178.92-31.86Q180.89-31.86 182.75-31.53 184.6-31.2 185.93-30.3 187.27-29.39 187.89-27.8 188.51-26.2 187.95-23.61L187.95-23.61Q186.9-18.65 181.55-16.85L181.55-16.85Q187.22-14.99 185.95-9.11ZM184.6-23.61L184.6-23.61Q184.95-25.29 184.47-26.37 183.99-27.44 183.03-28.02 182.07-28.59 180.78-28.8 179.5-29 178.31-29L178.31-29 172.06-29 169.76-18.19 176.01-18.19Q177.35-18.19 178.73-18.4 180.11-18.6 181.28-19.2 182.46-19.8 183.36-20.85 184.26-21.9 184.6-23.61ZM182.6-9.11L182.6-9.11Q183.31-12.4 181.5-13.9 179.7-15.41 175.96-15.41L175.96-15.41 169.15-15.41 166.51-2.86 173.3-2.86Q177.06-2.86 179.5-4.43 181.94-6.01 182.6-9.11ZM209.04-31.86L208.09-27.29 203.55-27.29 204.5-31.86 209.04-31.86ZM207.45-2.86L206.84 0 193.2 0 193.81-2.86 198.96-2.86 202.55-19.9 197.39-19.9 198-22.75 206.5-22.75 202.3-2.86 207.45-2.86ZM242.29-22.75L237.53-0.24Q237.04 2.1 235.84 3.93 234.65 5.76 232.91 7.03 231.18 8.3 229.06 8.97 226.93 9.64 224.54 9.64L224.54 9.64Q221.15 9.64 219.05 8.37 216.95 7.1 215.8 4.71L215.8 4.71 218.44 2.91Q219.15 4.49 220.89 5.57 222.64 6.64 225.2 6.64L225.2 6.64Q228.64 6.64 231.03 4.9 233.43 3.15 234.14-0.15L234.14-0.15 234.7-2.59Q231.08 0.05 227.3 0.05L227.3 0.05Q221.93 0.05 219.54-3 217.14-6.05 218.29-11.35L218.29-11.35Q218.83-13.94 220.08-16.13 221.34-18.31 223.16-19.91 224.98-21.51 227.31-22.4 229.64-23.29 232.28-23.29L232.28-23.29Q234.14-23.29 235.73-22.64 237.33-22 238.48-20.7L238.48-20.7 238.94-22.75 242.29-22.75ZM235.33-5.86L237.85-17.46Q236.7-19.04 235.12-19.75 233.55-20.46 231.65-20.46L231.65-20.46Q229.64-20.46 227.97-19.75 226.3-19.04 225.04-17.82 223.78-16.6 222.92-14.93 222.05-13.26 221.64-11.35L221.64-11.35Q220.78-7.45 222.31-5.13 223.83-2.81 227.89-2.81L227.89-2.81Q229.79-2.81 231.69-3.53 233.6-4.25 235.33-5.86L235.33-5.86ZM253.64-4.54L258.13-4.54 248.54 9.11 246.17 9.11 253.64-4.54ZM325.31-22.75L325.31-22.75Q324.36-18.14 321.02-15.89 317.67-13.65 312.47-13.65L312.47-13.65 305.27-13.65 302.37 0 299.02 0 305.76-31.86 316.26-31.86Q321.51-31.86 323.91-29.58 326.32-27.29 325.31-22.75ZM321.97-22.75L321.97-22.75Q322.68-26.05 320.92-27.53 319.16-29 315.72-29L315.72-29 308.52-29 305.86-16.5 313.06-16.5Q316.53-16.5 318.89-17.98 321.26-19.46 321.97-22.75ZM326.36-6.15L326.36-6.15Q326.8-8.3 328.18-9.75 329.56-11.21 331.49-12.05 333.42-12.89 335.76-13.27 338.1-13.65 340.45-13.65L340.45-13.65Q341.35-13.65 342.06-13.62 342.77-13.6 343.41-13.55 344.06-13.5 344.68-13.43 345.31-13.35 346.11-13.26L346.11-13.26 346.45-14.89Q346.82-16.55 346.32-17.63 345.82-18.7 344.89-19.32 343.96-19.95 342.87-20.2 341.77-20.46 340.96-20.46L340.96-20.46Q338.4-20.46 336.13-19.78 333.86-19.09 331.76-17.94L331.76-17.94 330.76-20.46Q333.1-21.7 335.83-22.5 338.57-23.29 341.62-23.29L341.62-23.29Q343.45-23.29 345.16-22.81 346.87-22.34 348.07-21.35 349.26-20.36 349.76-18.75 350.26-17.14 349.8-14.89L349.8-14.89 346.65 0 343.3 0 344.11-3.81Q342.96-2.71 341.68-1.88 340.4-1.05 339.08-0.52 337.76 0 336.46 0.28 335.15 0.56 334.05 0.56L334.05 0.56Q329.56 0.56 327.61-1.17 325.65-2.91 326.36-6.15ZM334.66-2.29L334.66-2.29Q336.76-2.29 338.58-2.92 340.4-3.54 341.75-4.47 343.11-5.4 343.99-6.45 344.87-7.5 345.06-8.35L345.06-8.35 345.5-10.5Q343.92-10.74 342.41-10.77 340.91-10.79 339.81-10.79L339.81-10.79Q338.01-10.79 336.29-10.55 334.56-10.3 333.21-9.75 331.85-9.2 330.9-8.33 329.95-7.45 329.71-6.15L329.71-6.15Q329.36-4.71 330.51-3.5 331.66-2.29 334.66-2.29ZM376.65-22.75L380.66-22.75 362.3 5.76Q360.86 8.15 358.95 8.9 357.05 9.64 354.95 9.64L354.95 9.64Q352.6 9.64 350.5 8.79L350.5 8.79 351.75 5.91Q352.75 6.4 353.82 6.6 354.9 6.81 355.61 6.81L355.61 6.81Q357.24 6.81 358.02 6.01 358.81 5.2 359.51 4.1L359.51 4.1 361.66 0.66 356.46-22.75 360.39-22.75 364.4-2.86 376.65-22.75ZM430.68-8.3L430.68-8.3Q430.24-6.3 429.06-4.68 427.89-3.05 426.24-1.88 424.6-0.71 422.67-0.07 420.74 0.56 418.79 0.56L418.79 0.56Q416.08 0.56 414.06-0.44 412.05-1.44 411.14-3.39L411.14-3.39 410.44 0 407.58 0 409.63-9.69 412.49-9.69Q412.15-8.06 412.6-6.7 413.05-5.35 414.01-4.37 414.98-3.39 416.38-2.84 417.78-2.29 419.4-2.29L419.4-2.29Q420.79-2.29 422.08-2.7 423.38-3.1 424.43-3.85 425.48-4.59 426.23-5.66 426.99-6.74 427.28-8.11L427.28-8.11Q427.65-9.64 427.2-10.74 426.74-11.84 425.77-12.62 424.79-13.4 423.49-13.95 422.18-14.5 420.84-15.04L420.84-15.04Q419.23-15.65 417.65-16.32 416.08-16.99 414.9-18.02 413.73-19.04 413.21-20.52 412.68-22 413.15-24.19L413.15-24.19Q413.59-26.15 414.73-27.67 415.88-29.2 417.46-30.25 419.03-31.3 420.91-31.85 422.79-32.4 424.69-32.4L424.69-32.4Q426.99-32.4 428.76-31.45 430.53-30.49 431.24-28.54L431.24-28.54 431.94-31.86 434.87-31.86 432.95-22.75 429.99-22.75Q430.28-24.19 429.96-25.45 429.63-26.71 428.81-27.6 427.99-28.49 426.77-29.02 425.55-29.54 424.08-29.54L424.08-29.54Q422.79-29.54 421.57-29.25 420.35-28.96 419.32-28.31 418.3-27.66 417.54-26.64 416.78-25.61 416.49-24.19L416.49-24.19Q416.25-22.95 416.69-22.07 417.13-21.19 418.03-20.52 418.93-19.85 420.19-19.3 421.45-18.75 422.79-18.19L422.79-18.19Q424.43-17.55 426.06-16.77 427.7-15.99 428.87-14.89 430.04-13.79 430.61-12.19 431.19-10.6 430.68-8.3ZM460.48-16.36L457.04 0 453.67 0 457.14-16.36Q457.53-18.31 457.08-19.38 456.63-20.46 455.33-20.46L455.33-20.46Q453.43-20.46 452.11-18.46 450.79-16.46 450.03-12.84L450.03-12.84 447.32 0 443.98 0 447.42-16.36Q447.84-18.31 447.36-19.38 446.88-20.46 445.59-20.46L445.59-20.46Q444.37-20.46 443.53-19.75 442.68-19.04 442.06-17.94 441.44-16.85 441.04-15.5 440.63-14.16 440.34-12.84L440.34-12.84 437.63 0 434.29 0 439.07-22.75 442.44-22.75 441.73-19.46Q443.64-23.29 447.13-23.29L447.13-23.29Q450.47-23.29 450.94-19.95L450.94-19.95Q453.33-23.29 456.38-23.29L456.38-23.29Q459.29-23.29 460.26-21.57 461.24-19.85 460.48-16.36L460.48-16.36ZM462.82-6.15L462.82-6.15Q463.26-8.3 464.64-9.75 466.02-11.21 467.95-12.05 469.88-12.89 472.22-13.27 474.57-13.65 476.91-13.65L476.91-13.65Q477.81-13.65 478.52-13.62 479.23-13.6 479.88-13.55 480.52-13.5 481.15-13.43 481.77-13.35 482.57-13.26L482.57-13.26 482.92-14.89Q483.28-16.55 482.78-17.63 482.28-18.7 481.35-19.32 480.43-19.95 479.33-20.2 478.23-20.46 477.42-20.46L477.42-20.46Q474.86-20.46 472.59-19.78 470.32-19.09 468.22-17.94L468.22-17.94 467.22-20.46Q469.56-21.7 472.3-22.5 475.03-23.29 478.08-23.29L478.08-23.29Q479.91-23.29 481.62-22.81 483.33-22.34 484.53-21.35 485.72-20.36 486.22-18.75 486.73-17.14 486.26-14.89L486.26-14.89 483.11 0 479.77 0 480.57-3.81Q479.43-2.71 478.14-1.88 476.86-1.05 475.54-0.52 474.23 0 472.92 0.28 471.61 0.56 470.51 0.56L470.51 0.56Q466.02 0.56 464.07-1.17 462.12-2.91 462.82-6.15ZM471.12-2.29L471.12-2.29Q473.22-2.29 475.04-2.92 476.86-3.54 478.22-4.47 479.57-5.4 480.45-6.45 481.33-7.5 481.52-8.35L481.52-8.35 481.96-10.5Q480.38-10.74 478.88-10.77 477.37-10.79 476.28-10.79L476.28-10.79Q474.47-10.79 472.75-10.55 471.03-10.3 469.67-9.75 468.32-9.2 467.36-8.33 466.41-7.45 466.17-6.15L466.17-6.15Q465.83-4.71 466.97-3.5 468.12-2.29 471.12-2.29ZM516.17-22.29L514.51-19.56Q512.87-20.46 510.36-20.46L510.36-20.46Q508.3-20.46 506.53-19.58 504.76-18.7 503.34-17.27 501.91-15.84 500.91-14 499.91-12.16 499.52-10.21L499.52-10.21 497.95-2.86 503.1-2.86 502.52 0 488.87 0 489.46-2.86 494.61-2.86 498.22-19.9 493.07-19.9 493.66-22.75 502.15-22.75 500.96-17.04Q504.62-23.29 511.01-23.29L511.01-23.29Q512.77-23.29 513.99-23.07 515.21-22.85 516.17-22.29L516.17-22.29ZM538.01-7.86L540.65-7.25Q539.5-3.66 536.63-1.55 533.77 0.56 530.1 0.56L530.1 0.56Q528.1 0.56 526.6-0.1 525.1-0.76 524.18-1.93 523.27-3.1 522.96-4.75 522.66-6.4 523.05-8.35L523.05-8.35 525.51-19.9 520.36-19.9 520.95-22.75 526.1-22.75 528.05-31.86 531.4-31.86 529.44-22.75 539.16-22.75 538.55-19.9 528.86-19.9 526.42-8.35Q526.15-7.1 526.31-6.01 526.47-4.91 527.02-4.08 527.56-3.25 528.48-2.77 529.4-2.29 530.71-2.29L530.71-2.29Q533.2-2.29 535.21-3.85 537.21-5.4 538.01-7.86L538.01-7.86Z" opacity="1" transform="matrix(1,0,0,1,0,0)" fill="#ffffff" class="slogan-text-1" data-fill-palette-color="secondary" id="text-1"></path></svg></g></svg></g></svg></g></svg></g><g transform="matrix(1,0,0,1,421.1798390563796,0)"><svg viewBox="0 0 209.73338875674915 209.73338875674915" height="209.73338875674915" width="209.73338875674915"><g><svg></svg></g><g id="icon-0"><svg viewBox="0 0 209.73338875674915 209.73338875674915" height="209.73338875674915" width="209.73338875674915"><g><path d="M0 104.867c0-57.916 46.95-104.867 104.867-104.867 57.916 0 104.867 46.95 104.866 104.867 0 57.916-46.95 104.867-104.866 104.866-57.916 0-104.867-46.95-104.867-104.866zM104.867 204.832c55.21 0 99.966-44.756 99.965-99.965 0-55.21-44.756-99.966-99.965-99.966-55.21 0-99.966 44.756-99.966 99.966 0 55.21 44.756 99.966 99.966 99.965z" data-fill-palette-color="accent" fill="#ffffff" stroke="transparent"></path></g><g transform="matrix(1,0,0,1,42.065660112629246,46.72995567562891)"><svg viewBox="0 0 125.60206853149066 116.27347740549133" height="116.27347740549133" width="125.60206853149066"><g><svg xmlns="http://www.w3.org/2000/svg" xmlns:xlink="http://www.w3.org/1999/xlink" version="1.1" x="0" y="0" viewBox="15.334 23.986 433.789 401.57105754675484" enable-background="new 0 0 463.893 438.877" xml:space="preserve" height="116.27347740549133" width="125.60206853149066" class="icon-dxe-0" data-fill-palette-color="accent" id="dxe-0"><path d="M232.272 88.949L79.937 223.837V416.586C79.937 421.565 83.96 425.557 88.938 425.557H184.143V341.047C184.143 336.068 188.137 332.047 193.114 332.047H271.343C276.321 332.047 280.313 336.068 280.313 341.047V425.557H375.548A8.94 8.94 0 0 0 384.52 416.586V223.779zM276.328 277.105H191.232V224.74H276.328z" fill="#ffffff" data-fill-palette-color="accent"></path><path d="M79.937 42.699H134.708L134.229 75.137 79.936 124.185z" fill="#ffffff" data-fill-palette-color="accent"></path><path d="M231.388 24.746L15.334 216.053 38.092 241.729 232.272 69.777 426.408 241.729 449.123 216.053 233.113 24.746 232.229 23.986z" fill="#ffffff" data-fill-palette-color="accent"></path></svg></g></svg></g></svg></g></svg></g></svg></g><defs></defs></svg><rect width="395.52" height="131.4820267893315" fill="none" stroke="none" visibility="hidden"></rect></g></svg></g></svg>