<svg xmlns="http://www.w3.org/2000/svg" version="1.1" xmlns:xlink="http://www.w3.org/1999/xlink" xmlns:svgjs="http://svgjs.dev/svgjs" width="1500" height="261" viewBox="0 0 1500 261"><g transform="matrix(1,0,0,1,-0.9042573011519153,-0.8033683211696143)"><svg viewBox="0 0 396 69" data-background-color="#ffffff" preserveAspectRatio="xMidYMid meet" height="261" width="1500" xmlns="http://www.w3.org/2000/svg" xmlns:xlink="http://www.w3.org/1999/xlink"><g id="tight-bounds" transform="matrix(1,0,0,1,0.2387239275041111,0.48220846133048667)"><svg viewBox="0 0 395.52 68.03362510587014" height="68.03362510587014" width="395.52"><g><svg viewBox="0 0 523.4687983789148 90.04217228845928" height="68.03362510587014" width="395.52"><g transform="matrix(1,0,0,1,0,12.444323377059135)"><svg viewBox="0 0 395.52 65.15352553434101" height="65.15352553434101" width="395.52"><g id="textblocktransform"><svg viewBox="0 0 395.52 65.15352553434101" height="65.15352553434101" width="395.52" id="textblock"><g><svg viewBox="0 0 395.52 46.248830682881184" height="46.248830682881184" width="395.52"><g transform="matrix(1,0,0,1,0,0)"><svg width="395.52" viewBox="2.7 -36.75 320.93 37.5" height="46.248830682881184" data-palette-color="#6b7280"><g class="wordmark-text-0" data-fill-palette-color="primary" id="text-0"><path d="M16.5-25.5L16.5-25.5 14.15-17.9 22-17.9 19.65-25.5Q19.45-25.95 19.23-26.15 19-26.35 18.7-26.35L18.7-26.35 17.45-26.35Q17.15-26.35 16.93-26.15 16.7-25.95 16.5-25.5ZM13.65-8.8L13.65-1.8Q13.65-0.85 13.23-0.43 12.8 0 11.85 0L11.85 0 4.5 0Q3.55 0 3.13-0.43 2.7-0.85 2.7-1.8L2.7-1.8 2.7-15Q2.7-16.5 3.18-18.45 3.65-20.4 4.65-23L4.65-23 9-34.35Q9.3-35.2 9.93-35.6 10.55-36 11.55-36L11.55-36 25-36Q25.95-36 26.58-35.6 27.2-35.2 27.5-34.35L27.5-34.35 31.85-23Q32.85-20.4 33.33-18.45 33.8-16.5 33.8-15L33.8-15 33.8-1.8Q33.8-0.85 33.38-0.43 32.95 0 32 0L32 0 24.45 0Q23.45 0 22.98-0.43 22.5-0.85 22.5-1.8L22.5-1.8 22.5-8.8 13.65-8.8ZM70.6-34.2L70.6-9.45Q70.6-7.15 69.92-5.28 69.25-3.4 67.52-2.08 65.8-0.75 62.8 0 59.8 0.75 55.15 0.75L55.15 0.75Q50.5 0.75 47.5 0 44.5-0.75 42.77-2.08 41.05-3.4 40.37-5.28 39.7-7.15 39.7-9.45L39.7-9.45 39.7-34.2Q39.7-35.15 40.12-35.58 40.55-36 41.5-36L41.5-36 49.35-36Q50.3-36 50.72-35.58 51.15-35.15 51.15-34.2L51.15-34.2 51.15-11.4Q51.15-10.4 51.9-9.73 52.65-9.05 55.25-9.05L55.25-9.05Q57.9-9.05 58.65-9.73 59.4-10.4 59.4-11.4L59.4-11.4 59.4-34.2Q59.4-35.15 59.82-35.58 60.25-36 61.2-36L61.2-36 68.8-36Q69.75-36 70.17-35.58 70.6-35.15 70.6-34.2L70.6-34.2ZM94.25 0L94.25 0 86.15 0Q85.2 0 84.77-0.43 84.35-0.85 84.35-1.8L84.35-1.8 84.35-26.35 77-26.35Q76.05-26.35 75.62-26.78 75.2-27.2 75.2-28.15L75.2-28.15 75.2-34.2Q75.2-35.15 75.62-35.58 76.05-36 77-36L77-36 103.4-36Q104.35-36 104.77-35.58 105.2-35.15 105.2-34.2L105.2-34.2 105.2-28.15Q105.2-27.2 104.77-26.78 104.35-26.35 103.4-26.35L103.4-26.35 96.05-26.35 96.05-1.8Q96.05-0.85 95.62-0.43 95.2 0 94.25 0ZM140.54-26.5L140.54-9.45Q140.54-7.15 139.87-5.28 139.19-3.4 137.47-2.08 135.74-0.75 132.72 0 129.69 0.75 125.04 0.75L125.04 0.75Q120.39 0.75 117.34 0 114.29-0.75 112.57-2.08 110.84-3.4 110.17-5.28 109.49-7.15 109.49-9.45L109.49-9.45 109.49-26.5Q109.49-28.8 110.17-30.68 110.84-32.55 112.57-33.9 114.29-35.25 117.34-36 120.39-36.75 125.04-36.75L125.04-36.75Q129.69-36.75 132.72-36 135.74-35.25 137.47-33.9 139.19-32.55 139.87-30.68 140.54-28.8 140.54-26.5L140.54-26.5ZM120.84-24.7L120.84-11.25Q120.84-10.25 121.59-9.58 122.34-8.9 125.04-8.9L125.04-8.9Q127.74-8.9 128.49-9.58 129.24-10.25 129.24-11.25L129.24-11.25 129.24-24.7Q129.24-25.65 128.49-26.33 127.74-27 125.04-27L125.04-27Q122.34-27 121.59-26.33 120.84-25.65 120.84-24.7L120.84-24.7ZM156.44 0L156.44 0 148.69 0Q147.74 0 147.32-0.43 146.89-0.85 146.89-1.8L146.89-1.8 146.89-34.2Q146.89-35.15 147.32-35.58 147.74-36 148.69-36L148.69-36 163.99-36Q170.79-36 173.29-33.3 175.79-30.6 175.79-26.25L175.79-26.25 175.79-19.85Q175.79-15.5 173.29-12.8 170.79-10.1 163.99-10.1L163.99-10.1 158.24-10.1 158.24-1.8Q158.24-0.85 157.82-0.43 157.39 0 156.44 0ZM162.64-26.65L158.14-26.65 158.14-19.1 162.64-19.1Q164.09-19.1 164.54-19.85 164.99-20.6 164.99-21.55L164.99-21.55 164.99-24.2Q164.99-25.15 164.54-25.9 164.09-26.65 162.64-26.65L162.64-26.65ZM211.49-26.5L211.49-9.45Q211.49-7.15 210.81-5.28 210.14-3.4 208.41-2.08 206.69-0.75 203.66 0 200.64 0.75 195.99 0.75L195.99 0.75Q191.34 0.75 188.29 0 185.24-0.75 183.51-2.08 181.79-3.4 181.11-5.28 180.44-7.15 180.44-9.45L180.44-9.45 180.44-26.5Q180.44-28.8 181.11-30.68 181.79-32.55 183.51-33.9 185.24-35.25 188.29-36 191.34-36.75 195.99-36.75L195.99-36.75Q200.64-36.75 203.66-36 206.69-35.25 208.41-33.9 210.14-32.55 210.81-30.68 211.49-28.8 211.49-26.5L211.49-26.5ZM191.79-24.7L191.79-11.25Q191.79-10.25 192.54-9.58 193.29-8.9 195.99-8.9L195.99-8.9Q198.69-8.9 199.44-9.58 200.19-10.25 200.19-11.25L200.19-11.25 200.19-24.7Q200.19-25.65 199.44-26.33 198.69-27 195.99-27L195.99-27Q193.29-27 192.54-26.33 191.79-25.65 191.79-24.7L191.79-24.7ZM243.69-36L243.69-36 251.14-36Q252.09-36 252.51-35.58 252.94-35.15 252.94-34.2L252.94-34.2 252.94-14.8Q252.94-13.2 252.81-11.83 252.69-10.45 252.04-8.6L252.04-8.6 249.54-1.8Q249.29-1.05 248.81-0.53 248.34 0 247.54 0L247.54 0 240.89 0Q240.09 0 239.44-0.35 238.79-0.7 238.59-1.5L238.59-1.5 236.29-9.65Q236.14-10.15 235.91-10.33 235.69-10.5 235.39-10.5L235.39-10.5 234.94-10.5Q234.64-10.5 234.41-10.33 234.19-10.15 234.04-9.65L234.04-9.65 231.69-1.5Q231.49-0.75 230.94-0.38 230.39 0 229.59 0L229.59 0 222.99 0Q222.19 0 221.61-0.5 221.04-1 220.79-1.8L220.79-1.8 218.29-8.7Q217.64-10.55 217.51-11.93 217.39-13.3 217.39-14.9L217.39-14.9 217.39-34.2Q217.39-35.15 217.81-35.58 218.24-36 219.19-36L219.19-36 226.89-36Q227.84-36 228.26-35.58 228.69-35.15 228.69-34.2L228.69-34.2 228.69-15.8 231.59-22.1Q231.99-22.95 232.64-23.3 233.29-23.65 234.24-23.65L234.24-23.65 236.34-23.65Q237.29-23.65 237.94-23.3 238.59-22.95 238.99-22.1L238.99-22.1 241.89-15.8 241.89-34.2Q241.89-35.15 242.31-35.58 242.74-36 243.69-36ZM284.38 0L284.38 0 261.18 0Q260.23 0 259.81-0.43 259.38-0.85 259.38-1.8L259.38-1.8 259.38-34.2Q259.38-35.15 259.81-35.58 260.23-36 261.18-36L261.18-36 284.38-36Q285.33-36 285.76-35.58 286.18-35.15 286.18-34.2L286.18-34.2 286.18-28.35Q286.18-27.4 285.76-26.98 285.33-26.55 284.38-26.55L284.38-26.55 270.58-26.55 270.58-22.7 280.33-22.7Q281.28-22.7 281.71-22.28 282.13-21.85 282.13-20.9L282.13-20.9 282.13-15.55Q282.13-14.6 281.71-14.18 281.28-13.75 280.33-13.75L280.33-13.75 270.58-13.75 270.58-9.45 284.38-9.45Q285.33-9.45 285.76-9.03 286.18-8.6 286.18-7.65L286.18-7.65 286.18-1.8Q286.18-0.85 285.76-0.43 285.33 0 284.38 0ZM307.13-27L303.38-27 303.38-20.6 307.13-20.6Q308.43-20.6 308.88-21.28 309.33-21.95 309.33-22.95L309.33-22.95 309.33-24.65Q309.33-25.65 308.88-26.33 308.43-27 307.13-27L307.13-27ZM301.58 0L301.58 0 293.88 0Q292.93 0 292.51-0.43 292.08-0.85 292.08-1.8L292.08-1.8 292.08-34.2Q292.08-35.15 292.51-35.58 292.93-36 293.88-36L293.88-36 310.53-36Q316.13-36 318.26-33.68 320.38-31.35 320.38-27.65L320.38-27.65 320.38-25.35Q320.38-23.25 319.76-21.78 319.13-20.3 317.58-19.65L317.58-19.65Q320.28-19.35 321.96-17.45 323.63-15.55 323.63-12.4L323.63-12.4 323.63-1.8Q323.63-0.85 323.21-0.43 322.78 0 321.83 0L321.83 0 314.08 0Q313.13 0 312.71-0.43 312.28-0.85 312.28-1.8L312.28-1.8 312.28-9.45Q312.28-10.55 311.86-11.08 311.43-11.6 310.38-11.6L310.38-11.6 303.38-11.6 303.38-1.8Q303.38-0.85 302.96-0.43 302.53 0 301.58 0Z" fill="#6b7280" data-fill-palette-color="primary"></path></g></svg></g></svg></g><g transform="matrix(1,0,0,1,163.310208,57.16706963517304)"><svg viewBox="0 0 232.209792 7.986455899167971" height="7.986455899167971" width="232.209792"><g transform="matrix(1,0,0,1,0,0)"><svg width="232.209792" viewBox="3.45 -36.75 1213.8 41.75" height="7.986455899167971" data-palette-color="#000000"><path d="M13 0L13 0 5.25 0Q4.3 0 3.88-0.43 3.45-0.85 3.45-1.8L3.45-1.8 3.45-34.2Q3.45-35.15 3.88-35.58 4.3-36 5.25-36L5.25-36 20.55-36Q27.35-36 29.85-33.3 32.35-30.6 32.35-26.25L32.35-26.25 32.35-19.85Q32.35-15.5 29.85-12.8 27.35-10.1 20.55-10.1L20.55-10.1 14.8-10.1 14.8-1.8Q14.8-0.85 14.38-0.43 13.95 0 13 0ZM19.2-26.65L14.7-26.65 14.7-19.1 19.2-19.1Q20.65-19.1 21.1-19.85 21.55-20.6 21.55-21.55L21.55-21.55 21.55-24.2Q21.55-25.15 21.1-25.9 20.65-26.65 19.2-26.65L19.2-26.65ZM68.05-26.5L68.05-9.45Q68.05-7.15 67.37-5.28 66.7-3.4 64.97-2.08 63.25-0.75 60.22 0 57.2 0.75 52.55 0.75L52.55 0.75Q47.9 0.75 44.85 0 41.8-0.75 40.07-2.08 38.35-3.4 37.67-5.28 37-7.15 37-9.45L37-9.45 37-26.5Q37-28.8 37.67-30.68 38.35-32.55 40.07-33.9 41.8-35.25 44.85-36 47.9-36.75 52.55-36.75L52.55-36.75Q57.2-36.75 60.22-36 63.25-35.25 64.97-33.9 66.7-32.55 67.37-30.68 68.05-28.8 68.05-26.5L68.05-26.5ZM48.35-24.7L48.35-11.25Q48.35-10.25 49.1-9.58 49.85-8.9 52.55-8.9L52.55-8.9Q55.25-8.9 56-9.58 56.75-10.25 56.75-11.25L56.75-11.25 56.75-24.7Q56.75-25.65 56-26.33 55.25-27 52.55-27L52.55-27Q49.85-27 49.1-26.33 48.35-25.65 48.35-24.7L48.35-24.7ZM100.25-36L100.25-36 107.7-36Q108.65-36 109.07-35.58 109.5-35.15 109.5-34.2L109.5-34.2 109.5-14.8Q109.5-13.2 109.37-11.83 109.25-10.45 108.59-8.6L108.59-8.6 106.09-1.8Q105.84-1.05 105.37-0.53 104.9 0 104.09 0L104.09 0 97.45 0Q96.65 0 96-0.35 95.35-0.7 95.15-1.5L95.15-1.5 92.85-9.65Q92.7-10.15 92.47-10.33 92.25-10.5 91.95-10.5L91.95-10.5 91.5-10.5Q91.2-10.5 90.97-10.33 90.75-10.15 90.6-9.65L90.6-9.65 88.25-1.5Q88.05-0.75 87.5-0.38 86.95 0 86.15 0L86.15 0 79.55 0Q78.75 0 78.17-0.5 77.6-1 77.35-1.8L77.35-1.8 74.85-8.7Q74.2-10.55 74.07-11.93 73.95-13.3 73.95-14.9L73.95-14.9 73.95-34.2Q73.95-35.15 74.37-35.58 74.8-36 75.75-36L75.75-36 83.45-36Q84.4-36 84.82-35.58 85.25-35.15 85.25-34.2L85.25-34.2 85.25-15.8 88.15-22.1Q88.55-22.95 89.2-23.3 89.85-23.65 90.8-23.65L90.8-23.65 92.9-23.65Q93.85-23.65 94.5-23.3 95.15-22.95 95.55-22.1L95.55-22.1 98.45-15.8 98.45-34.2Q98.45-35.15 98.87-35.58 99.3-36 100.25-36ZM140.94 0L140.94 0 117.74 0Q116.79 0 116.37-0.43 115.94-0.85 115.94-1.8L115.94-1.8 115.94-34.2Q115.94-35.15 116.37-35.58 116.79-36 117.74-36L117.74-36 140.94-36Q141.89-36 142.32-35.58 142.74-35.15 142.74-34.2L142.74-34.2 142.74-28.35Q142.74-27.4 142.32-26.98 141.89-26.55 140.94-26.55L140.94-26.55 127.14-26.55 127.14-22.7 136.89-22.7Q137.84-22.7 138.27-22.28 138.69-21.85 138.69-20.9L138.69-20.9 138.69-15.55Q138.69-14.6 138.27-14.18 137.84-13.75 136.89-13.75L136.89-13.75 127.14-13.75 127.14-9.45 140.94-9.45Q141.89-9.45 142.32-9.03 142.74-8.6 142.74-7.65L142.74-7.65 142.74-1.8Q142.74-0.85 142.32-0.43 141.89 0 140.94 0ZM163.69-27L159.94-27 159.94-20.6 163.69-20.6Q164.99-20.6 165.44-21.28 165.89-21.95 165.89-22.95L165.89-22.95 165.89-24.65Q165.89-25.65 165.44-26.33 164.99-27 163.69-27L163.69-27ZM158.14 0L158.14 0 150.44 0Q149.49 0 149.06-0.43 148.64-0.85 148.64-1.8L148.64-1.8 148.64-34.2Q148.64-35.15 149.06-35.58 149.49-36 150.44-36L150.44-36 167.09-36Q172.69-36 174.81-33.68 176.94-31.35 176.94-27.65L176.94-27.65 176.94-25.35Q176.94-23.25 176.31-21.78 175.69-20.3 174.14-19.65L174.14-19.65Q176.84-19.35 178.51-17.45 180.19-15.55 180.19-12.4L180.19-12.4 180.19-1.8Q180.19-0.85 179.76-0.43 179.34 0 178.39 0L178.39 0 170.64 0Q169.69 0 169.26-0.43 168.84-0.85 168.84-1.8L168.84-1.8 168.84-9.45Q168.84-10.55 168.41-11.08 167.99-11.6 166.94-11.6L166.94-11.6 159.94-11.6 159.94-1.8Q159.94-0.85 159.51-0.43 159.09 0 158.14 0ZM227.69-34.2L227.69-9.45Q227.69-7.15 227.01-5.28 226.34-3.4 224.61-2.08 222.89-0.75 219.89 0 216.89 0.75 212.24 0.75L212.24 0.75Q207.59 0.75 204.59 0 201.59-0.75 199.86-2.08 198.14-3.4 197.46-5.28 196.78-7.15 196.78-9.45L196.78-9.45 196.78-34.2Q196.78-35.15 197.21-35.58 197.64-36 198.59-36L198.59-36 206.44-36Q207.39-36 207.81-35.58 208.24-35.15 208.24-34.2L208.24-34.2 208.24-11.4Q208.24-10.4 208.99-9.73 209.74-9.05 212.34-9.05L212.34-9.05Q214.99-9.05 215.74-9.73 216.49-10.4 216.49-11.4L216.49-11.4 216.49-34.2Q216.49-35.15 216.91-35.58 217.34-36 218.29-36L218.29-36 225.89-36Q226.84-36 227.26-35.58 227.69-35.15 227.69-34.2L227.69-34.2ZM243.88 0L243.88 0 236.13 0Q235.18 0 234.76-0.43 234.33-0.85 234.33-1.8L234.33-1.8 234.33-34.2Q234.33-35.15 234.76-35.58 235.18-36 236.13-36L236.13-36 251.43-36Q258.23-36 260.73-33.3 263.23-30.6 263.23-26.25L263.23-26.25 263.23-19.85Q263.23-15.5 260.73-12.8 258.23-10.1 251.43-10.1L251.43-10.1 245.68-10.1 245.68-1.8Q245.68-0.85 245.26-0.43 244.83 0 243.88 0ZM250.08-26.65L245.58-26.65 245.58-19.1 250.08-19.1Q251.53-19.1 251.98-19.85 252.43-20.6 252.43-21.55L252.43-21.55 252.43-24.2Q252.43-25.15 251.98-25.9 251.53-26.65 250.08-26.65L250.08-26.65ZM296.93 0L296.93 0 288.83 0Q287.88 0 287.45-0.43 287.03-0.85 287.03-1.8L287.03-1.8 287.03-8.2 279.38-18.45Q278.23-20 277.85-21.15 277.48-22.3 277.48-24.6L277.48-24.6 277.48-34.2Q277.48-35.15 277.9-35.58 278.33-36 279.28-36L279.28-36 286.98-36Q287.93-36 288.35-35.58 288.78-35.15 288.78-34.2L288.78-34.2 288.78-26Q288.78-25.5 288.83-24.95 288.88-24.4 289.23-23.9L289.23-23.9 291.53-20.3Q291.78-19.85 292.05-19.65 292.33-19.45 292.73-19.45L292.73-19.45 293.23-19.45Q293.63-19.45 293.9-19.65 294.18-19.85 294.43-20.3L294.43-20.3 296.73-23.9Q297.08-24.4 297.13-24.95 297.18-25.5 297.18-26L297.18-26 297.18-34.2Q297.18-35.15 297.6-35.58 298.03-36 298.98-36L298.98-36 306.43-36Q307.38-36 307.8-35.58 308.23-35.15 308.23-34.2L308.23-34.2 308.23-24.6Q308.23-22.3 307.83-21.15 307.43-20 306.33-18.45L306.33-18.45 298.73-8.15 298.73-1.8Q298.73-0.85 298.3-0.43 297.88 0 296.93 0ZM344.43-26.5L344.43-9.45Q344.43-7.15 343.75-5.28 343.08-3.4 341.35-2.08 339.63-0.75 336.6 0 333.58 0.75 328.93 0.75L328.93 0.75Q324.28 0.75 321.23 0 318.18-0.75 316.45-2.08 314.73-3.4 314.05-5.28 313.38-7.15 313.38-9.45L313.38-9.45 313.38-26.5Q313.38-28.8 314.05-30.68 314.73-32.55 316.45-33.9 318.18-35.25 321.23-36 324.28-36.75 328.93-36.75L328.93-36.75Q333.58-36.75 336.6-36 339.63-35.25 341.35-33.9 343.08-32.55 343.75-30.68 344.43-28.8 344.43-26.5L344.43-26.5ZM324.73-24.7L324.73-11.25Q324.73-10.25 325.48-9.58 326.23-8.9 328.93-8.9L328.93-8.9Q331.63-8.9 332.38-9.58 333.13-10.25 333.13-11.25L333.13-11.25 333.13-24.7Q333.13-25.65 332.38-26.33 331.63-27 328.93-27L328.93-27Q326.23-27 325.48-26.33 324.73-25.65 324.73-24.7L324.73-24.7ZM381.42-34.2L381.42-9.45Q381.42-7.15 380.75-5.28 380.07-3.4 378.35-2.08 376.62-0.75 373.62 0 370.62 0.75 365.97 0.75L365.97 0.75Q361.32 0.75 358.32 0 355.32-0.75 353.6-2.08 351.87-3.4 351.2-5.28 350.52-7.15 350.52-9.45L350.52-9.45 350.52-34.2Q350.52-35.15 350.95-35.58 351.37-36 352.32-36L352.32-36 360.17-36Q361.12-36 361.55-35.58 361.97-35.15 361.97-34.2L361.97-34.2 361.97-11.4Q361.97-10.4 362.72-9.73 363.47-9.05 366.07-9.05L366.07-9.05Q368.72-9.05 369.47-9.73 370.22-10.4 370.22-11.4L370.22-11.4 370.22-34.2Q370.22-35.15 370.65-35.58 371.07-36 372.02-36L372.02-36 379.62-36Q380.57-36 381-35.58 381.42-35.15 381.42-34.2L381.42-34.2ZM403.12-27L399.37-27 399.37-20.6 403.12-20.6Q404.42-20.6 404.87-21.28 405.32-21.95 405.32-22.95L405.32-22.95 405.32-24.65Q405.32-25.65 404.87-26.33 404.42-27 403.12-27L403.12-27ZM397.57 0L397.57 0 389.87 0Q388.92 0 388.5-0.43 388.07-0.85 388.07-1.8L388.07-1.8 388.07-34.2Q388.07-35.15 388.5-35.58 388.92-36 389.87-36L389.87-36 406.52-36Q412.12-36 414.25-33.68 416.37-31.35 416.37-27.65L416.37-27.65 416.37-25.35Q416.37-23.25 415.75-21.78 415.12-20.3 413.57-19.65L413.57-19.65Q416.27-19.35 417.95-17.45 419.62-15.55 419.62-12.4L419.62-12.4 419.62-1.8Q419.62-0.85 419.2-0.43 418.77 0 417.82 0L417.82 0 410.07 0Q409.12 0 408.7-0.43 408.27-0.85 408.27-1.8L408.27-1.8 408.27-9.45Q408.27-10.55 407.85-11.08 407.42-11.6 406.37-11.6L406.37-11.6 399.37-11.6 399.37-1.8Q399.37-0.85 398.95-0.43 398.52 0 397.57 0ZM451.52-27L447.77-27 447.77-20.6 451.52-20.6Q452.82-20.6 453.27-21.28 453.72-21.95 453.72-22.95L453.72-22.95 453.72-24.65Q453.72-25.65 453.27-26.33 452.82-27 451.52-27L451.52-27ZM445.97 0L445.97 0 438.27 0Q437.32 0 436.89-0.43 436.47-0.85 436.47-1.8L436.47-1.8 436.47-34.2Q436.47-35.15 436.89-35.58 437.32-36 438.27-36L438.27-36 454.92-36Q460.52-36 462.64-33.68 464.77-31.35 464.77-27.65L464.77-27.65 464.77-25.35Q464.77-23.25 464.14-21.78 463.52-20.3 461.97-19.65L461.97-19.65Q464.67-19.35 466.34-17.45 468.02-15.55 468.02-12.4L468.02-12.4 468.02-1.8Q468.02-0.85 467.59-0.43 467.17 0 466.22 0L466.22 0 458.47 0Q457.52 0 457.09-0.43 456.67-0.85 456.67-1.8L456.67-1.8 456.67-9.45Q456.67-10.55 456.24-11.08 455.82-11.6 454.77-11.6L454.77-11.6 447.77-11.6 447.77-1.8Q447.77-0.85 447.34-0.43 446.92 0 445.97 0ZM495.91 0L474.61 0Q473.66 0 473.24-0.43 472.81-0.85 472.81-1.8L472.81-1.8 472.81-7.75Q472.81-8.7 473.24-9.13 473.66-9.55 474.61-9.55L474.61-9.55 479.56-9.55 479.56-26.35 474.61-26.35Q473.66-26.35 473.24-26.78 472.81-27.2 472.81-28.15L472.81-28.15 472.81-34.2Q472.81-35.15 473.24-35.58 473.66-36 474.61-36L474.61-36 495.91-36Q496.86-36 497.29-35.58 497.71-35.15 497.71-34.2L497.71-34.2 497.71-28.15Q497.71-27.2 497.29-26.78 496.86-26.35 495.91-26.35L495.91-26.35 491.06-26.35 491.06-9.55 495.91-9.55Q496.86-9.55 497.29-9.13 497.71-8.7 497.71-7.75L497.71-7.75 497.71-1.8Q497.71-0.85 497.29-0.43 496.86 0 495.91 0L495.91 0ZM522.51 0L522.51 0 505.66 0Q504.71 0 504.29-0.43 503.86-0.85 503.86-1.8L503.86-1.8 503.86-34.2Q503.86-35.15 504.29-35.58 504.71-36 505.66-36L505.66-36 522.51-36Q528.76-36 531.79-33.5 534.81-31 534.81-25.8L534.81-25.8 534.81-10.2Q534.81-5 531.79-2.5 528.76 0 522.51 0ZM521.16-26.45L515.21-26.45 515.21-9.45 521.16-9.45Q522.36-9.45 522.94-10.05 523.51-10.65 523.51-11.9L523.51-11.9 523.51-24.05Q523.51-25.3 522.94-25.88 522.36-26.45 521.16-26.45L521.16-26.45ZM566.16 0L566.16 0 542.96 0Q542.01 0 541.58-0.43 541.16-0.85 541.16-1.8L541.16-1.8 541.16-34.2Q541.16-35.15 541.58-35.58 542.01-36 542.96-36L542.96-36 566.16-36Q567.11-36 567.53-35.58 567.96-35.15 567.96-34.2L567.96-34.2 567.96-28.35Q567.96-27.4 567.53-26.98 567.11-26.55 566.16-26.55L566.16-26.55 552.36-26.55 552.36-22.7 562.11-22.7Q563.06-22.7 563.48-22.28 563.91-21.85 563.91-20.9L563.91-20.9 563.91-15.55Q563.91-14.6 563.48-14.18 563.06-13.75 562.11-13.75L562.11-13.75 552.36-13.75 552.36-9.45 566.16-9.45Q567.11-9.45 567.53-9.03 567.96-8.6 567.96-7.65L567.96-7.65 567.96-1.8Q567.96-0.85 567.53-0.43 567.11 0 566.16 0ZM579.45 5L579.45 5 575.61 5Q574.65 5 574.23 4.58 573.8 4.15 573.8 3.2L573.8 3.2 573.8 1.2Q573.8 0.25 574.23-0.18 574.65-0.6 575.61-0.6L575.61-0.6 579.05-0.6Q579.7-0.6 580.05-0.98 580.4-1.35 580.4-2L580.4-2 580.4-2.75 574.95-2.75Q574-2.75 573.58-3.18 573.15-3.6 573.15-4.55L573.15-4.55 573.15-11.95Q573.15-12.9 573.58-13.33 574-13.75 574.95-13.75L574.95-13.75 585.05-13.75Q586-13.75 586.43-13.33 586.86-12.9 586.86-11.95L586.86-11.95 586.86-2.55Q586.86 1.25 584.83 3.13 582.8 5 579.45 5ZM613.05 0L613.05 0 605.6 0Q604.65 0 604.22-0.43 603.8-0.85 603.8-1.8L603.8-1.8 603.8-34.2Q603.8-35.15 604.22-35.58 604.65-36 605.6-36L605.6-36 613.65-36Q614.45-36 614.97-35.65 615.5-35.3 615.95-34.5L615.95-34.5 620.45-26.35Q620.7-25.9 620.87-25.7 621.05-25.5 621.35-25.5L621.35-25.5 621.8-25.5Q622.1-25.5 622.27-25.7 622.45-25.9 622.7-26.35L622.7-26.35 627.15-34.5Q627.6-35.3 628.12-35.65 628.65-36 629.45-36L629.45-36 637.55-36Q638.5-36 638.92-35.58 639.35-35.15 639.35-34.2L639.35-34.2 639.35-1.8Q639.35-0.85 638.92-0.43 638.5 0 637.55 0L637.55 0 629.85 0Q628.9 0 628.47-0.43 628.05-0.85 628.05-1.8L628.05-1.8 628.05-19.4 625.1-13.95Q624.65-13.1 624.02-12.73 623.4-12.35 622.45-12.35L622.45-12.35 620.45-12.35Q619.5-12.35 618.87-12.73 618.25-13.1 617.8-13.95L617.8-13.95 614.85-19.4 614.85-1.8Q614.85-0.85 614.42-0.43 614 0 613.05 0ZM659.3-25.5L659.3-25.5 656.95-17.9 664.8-17.9 662.45-25.5Q662.25-25.95 662.02-26.15 661.8-26.35 661.5-26.35L661.5-26.35 660.25-26.35Q659.95-26.35 659.72-26.15 659.5-25.95 659.3-25.5ZM656.45-8.8L656.45-1.8Q656.45-0.85 656.02-0.43 655.6 0 654.65 0L654.65 0 647.3 0Q646.35 0 645.92-0.43 645.5-0.85 645.5-1.8L645.5-1.8 645.5-15Q645.5-16.5 645.97-18.45 646.45-20.4 647.45-23L647.45-23 651.8-34.35Q652.1-35.2 652.72-35.6 653.35-36 654.35-36L654.35-36 667.8-36Q668.75-36 669.37-35.6 670-35.2 670.3-34.35L670.3-34.35 674.65-23Q675.65-20.4 676.12-18.45 676.6-16.5 676.6-15L676.6-15 676.6-1.8Q676.6-0.85 676.17-0.43 675.75 0 674.8 0L674.8 0 667.25 0Q666.25 0 665.77-0.43 665.3-0.85 665.3-1.8L665.3-1.8 665.3-8.8 656.45-8.8ZM693.49-6.75L693.49-1.8Q693.49-0.85 693.07-0.43 692.64 0 691.69 0L691.69 0 684.09 0Q683.14 0 682.72-0.43 682.29-0.85 682.29-1.8L682.29-1.8 682.29-7.15Q682.29-9.45 682.69-10.6 683.09-11.75 684.19-13.3L684.19-13.3 688.24-18.75 684.19-24.2Q683.04-25.75 682.67-26.9 682.29-28.05 682.29-30.35L682.29-30.35 682.29-34.2Q682.29-35.15 682.72-35.58 683.14-36 684.09-36L684.09-36 691.79-36Q692.74-36 693.17-35.58 693.59-35.15 693.59-34.2L693.59-34.2 693.59-30.75Q693.59-30.25 693.64-29.7 693.69-29.15 694.04-28.65L694.04-28.65 696.24-25.5Q696.49-25.1 696.77-24.88 697.04-24.65 697.44-24.65L697.44-24.65 698.04-24.65Q698.44-24.65 698.69-24.88 698.94-25.1 699.24-25.5L699.24-25.5 701.49-28.65Q701.84-29.15 701.89-29.7 701.94-30.25 701.94-30.75L701.94-30.75 701.94-34.2Q701.94-35.15 702.37-35.58 702.79-36 703.74-36L703.74-36 711.34-36Q712.29-36 712.72-35.58 713.14-35.15 713.14-34.2L713.14-34.2 713.14-30.35Q713.14-28.05 712.74-26.9 712.34-25.75 711.24-24.2L711.24-24.2 707.19-18.7 711.24-13.3Q712.39-11.75 712.77-10.6 713.14-9.45 713.14-7.15L713.14-7.15 713.14-1.8Q713.14-0.85 712.72-0.43 712.29 0 711.34 0L711.34 0 703.74 0Q702.79 0 702.37-0.43 701.94-0.85 701.94-1.8L701.94-1.8 701.94-6.75Q701.94-7.25 701.89-7.8 701.84-8.35 701.49-8.85L701.49-8.85 699.29-12Q698.99-12.45 698.74-12.65 698.49-12.85 698.09-12.85L698.09-12.85 697.39-12.85Q696.99-12.85 696.74-12.65 696.49-12.45 696.19-12L696.19-12 693.94-8.85Q693.59-8.35 693.54-7.8 693.49-7.25 693.49-6.75L693.49-6.75ZM741.89 0L720.59 0Q719.64 0 719.22-0.43 718.79-0.85 718.79-1.8L718.79-1.8 718.79-7.75Q718.79-8.7 719.22-9.13 719.64-9.55 720.59-9.55L720.59-9.55 725.54-9.55 725.54-26.35 720.59-26.35Q719.64-26.35 719.22-26.78 718.79-27.2 718.79-28.15L718.79-28.15 718.79-34.2Q718.79-35.15 719.22-35.58 719.64-36 720.59-36L720.59-36 741.89-36Q742.84-36 743.27-35.58 743.69-35.15 743.69-34.2L743.69-34.2 743.69-28.15Q743.69-27.2 743.27-26.78 742.84-26.35 741.89-26.35L741.89-26.35 737.04-26.35 737.04-9.55 741.89-9.55Q742.84-9.55 743.27-9.13 743.69-8.7 743.69-7.75L743.69-7.75 743.69-1.8Q743.69-0.85 743.27-0.43 742.84 0 741.89 0L741.89 0ZM759.09 0L759.09 0 751.64 0Q750.69 0 750.26-0.43 749.84-0.85 749.84-1.8L749.84-1.8 749.84-34.2Q749.84-35.15 750.26-35.58 750.69-36 751.64-36L751.64-36 759.69-36Q760.49-36 761.01-35.65 761.54-35.3 761.99-34.5L761.99-34.5 766.49-26.35Q766.74-25.9 766.91-25.7 767.09-25.5 767.39-25.5L767.39-25.5 767.84-25.5Q768.14-25.5 768.31-25.7 768.49-25.9 768.74-26.35L768.74-26.35 773.19-34.5Q773.64-35.3 774.16-35.65 774.69-36 775.49-36L775.49-36 783.59-36Q784.54-36 784.96-35.58 785.39-35.15 785.39-34.2L785.39-34.2 785.39-1.8Q785.39-0.85 784.96-0.43 784.54 0 783.59 0L783.59 0 775.89 0Q774.94 0 774.51-0.43 774.09-0.85 774.09-1.8L774.09-1.8 774.09-19.4 771.14-13.95Q770.69-13.1 770.06-12.73 769.44-12.35 768.49-12.35L768.49-12.35 766.49-12.35Q765.54-12.35 764.91-12.73 764.29-13.1 763.84-13.95L763.84-13.95 760.89-19.4 760.89-1.8Q760.89-0.85 760.46-0.43 760.04 0 759.09 0ZM814.59 0L793.29 0Q792.34 0 791.91-0.43 791.49-0.85 791.49-1.8L791.49-1.8 791.49-7.75Q791.49-8.7 791.91-9.13 792.34-9.55 793.29-9.55L793.29-9.55 798.24-9.55 798.24-26.35 793.29-26.35Q792.34-26.35 791.91-26.78 791.49-27.2 791.49-28.15L791.49-28.15 791.49-34.2Q791.49-35.15 791.91-35.58 792.34-36 793.29-36L793.29-36 814.59-36Q815.54-36 815.96-35.58 816.39-35.15 816.39-34.2L816.39-34.2 816.39-28.15Q816.39-27.2 815.96-26.78 815.54-26.35 814.59-26.35L814.59-26.35 809.74-26.35 809.74-9.55 814.59-9.55Q815.54-9.55 815.96-9.13 816.39-8.7 816.39-7.75L816.39-7.75 816.39-1.8Q816.39-0.85 815.96-0.43 815.54 0 814.59 0L814.59 0ZM847.98 0L847.98 0 823.18 0Q822.23 0 821.81-0.43 821.38-0.85 821.38-1.8L821.38-1.8 821.38-8.5Q821.38-9.45 821.68-10.18 821.98-10.9 822.63-11.6L822.63-11.6 834.78-26.35 824.08-26.35Q823.13-26.35 822.71-26.78 822.28-27.2 822.28-28.15L822.28-28.15 822.28-34.2Q822.28-35.15 822.71-35.58 823.13-36 824.08-36L824.08-36 847.08-36Q848.03-36 848.46-35.58 848.88-35.15 848.88-34.2L848.88-34.2 848.88-26.75Q848.88-25.75 848.58-25.03 848.28-24.3 847.63-23.6L847.63-23.6 836.03-9.55 847.98-9.55Q848.93-9.55 849.36-9.13 849.78-8.7 849.78-7.75L849.78-7.75 849.78-1.8Q849.78-0.85 849.36-0.43 848.93 0 847.98 0ZM880.53 0L880.53 0 857.33 0Q856.38 0 855.96-0.43 855.53-0.85 855.53-1.8L855.53-1.8 855.53-34.2Q855.53-35.15 855.96-35.58 856.38-36 857.33-36L857.33-36 880.53-36Q881.48-36 881.91-35.58 882.33-35.15 882.33-34.2L882.33-34.2 882.33-28.35Q882.33-27.4 881.91-26.98 881.48-26.55 880.53-26.55L880.53-26.55 866.73-26.55 866.73-22.7 876.48-22.7Q877.43-22.7 877.86-22.28 878.28-21.85 878.28-20.9L878.28-20.9 878.28-15.55Q878.28-14.6 877.86-14.18 877.43-13.75 876.48-13.75L876.48-13.75 866.73-13.75 866.73-9.45 880.53-9.45Q881.48-9.45 881.91-9.03 882.33-8.6 882.33-7.65L882.33-7.65 882.33-1.8Q882.33-0.85 881.91-0.43 881.48 0 880.53 0ZM924.48 0L924.48 0 901.28 0Q900.33 0 899.9-0.43 899.48-0.85 899.48-1.8L899.48-1.8 899.48-34.2Q899.48-35.15 899.9-35.58 900.33-36 901.28-36L901.28-36 924.48-36Q925.43-36 925.85-35.58 926.28-35.15 926.28-34.2L926.28-34.2 926.28-28.35Q926.28-27.4 925.85-26.98 925.43-26.55 924.48-26.55L924.48-26.55 910.68-26.55 910.68-22.7 920.43-22.7Q921.38-22.7 921.8-22.28 922.23-21.85 922.23-20.9L922.23-20.9 922.23-15.55Q922.23-14.6 921.8-14.18 921.38-13.75 920.43-13.75L920.43-13.75 910.68-13.75 910.68-9.45 924.48-9.45Q925.43-9.45 925.85-9.03 926.28-8.6 926.28-7.65L926.28-7.65 926.28-1.8Q926.28-0.85 925.85-0.43 925.43 0 924.48 0ZM953.47 0L953.47 0 940.47 0Q939.52 0 938.9-0.35 938.27-0.7 937.92-1.65L937.92-1.65 933.02-13.9Q932.57-15 932.27-15.83 931.97-16.65 931.77-17.4 931.57-18.15 931.5-18.98 931.42-19.8 931.42-21L931.42-21 931.42-34.2Q931.42-35.15 931.85-35.58 932.27-36 933.22-36L933.22-36 941.17-36Q942.12-36 942.62-35.58 943.12-35.15 943.12-34.2L943.12-34.2 943.12-20.4Q943.12-19.9 943.22-19.4 943.32-18.9 943.52-18.35L943.52-18.35 945.87-11.35Q946.02-10.85 946.22-10.68 946.42-10.5 946.82-10.5L946.82-10.5 947.37-10.5Q947.77-10.5 947.97-10.68 948.17-10.85 948.32-11.35L948.32-11.35 950.67-18.4Q950.87-18.95 950.97-19.45 951.07-19.95 951.07-20.45L951.07-20.45 951.07-34.2Q951.07-35.15 951.5-35.58 951.92-36 952.87-36L952.87-36 960.72-36Q961.67-36 962.1-35.58 962.52-35.15 962.52-34.2L962.52-34.2 962.52-21Q962.52-19.8 962.45-18.98 962.37-18.15 962.17-17.4 961.97-16.65 961.67-15.83 961.37-15 960.92-13.9L960.92-13.9 956.02-1.65Q955.67-0.7 955.05-0.35 954.42 0 953.47 0ZM993.67 0L993.67 0 970.47 0Q969.52 0 969.1-0.43 968.67-0.85 968.67-1.8L968.67-1.8 968.67-34.2Q968.67-35.15 969.1-35.58 969.52-36 970.47-36L970.47-36 993.67-36Q994.62-36 995.05-35.58 995.47-35.15 995.47-34.2L995.47-34.2 995.47-28.35Q995.47-27.4 995.05-26.98 994.62-26.55 993.67-26.55L993.67-26.55 979.87-26.55 979.87-22.7 989.62-22.7Q990.57-22.7 991-22.28 991.42-21.85 991.42-20.9L991.42-20.9 991.42-15.55Q991.42-14.6 991-14.18 990.57-13.75 989.62-13.75L989.62-13.75 979.87-13.75 979.87-9.45 993.67-9.45Q994.62-9.45 995.05-9.03 995.47-8.6 995.47-7.65L995.47-7.65 995.47-1.8Q995.47-0.85 995.05-0.43 994.62 0 993.67 0ZM1016.42-27L1012.67-27 1012.67-20.6 1016.42-20.6Q1017.72-20.6 1018.17-21.28 1018.62-21.95 1018.62-22.95L1018.62-22.95 1018.62-24.65Q1018.62-25.65 1018.17-26.33 1017.72-27 1016.42-27L1016.42-27ZM1010.87 0L1010.87 0 1003.17 0Q1002.22 0 1001.79-0.43 1001.37-0.85 1001.37-1.8L1001.37-1.8 1001.37-34.2Q1001.37-35.15 1001.79-35.58 1002.22-36 1003.17-36L1003.17-36 1019.82-36Q1025.42-36 1027.54-33.68 1029.67-31.35 1029.67-27.65L1029.67-27.65 1029.67-25.35Q1029.67-23.25 1029.04-21.78 1028.42-20.3 1026.87-19.65L1026.87-19.65Q1029.57-19.35 1031.24-17.45 1032.92-15.55 1032.92-12.4L1032.92-12.4 1032.92-1.8Q1032.92-0.85 1032.49-0.43 1032.07 0 1031.12 0L1031.12 0 1023.37 0Q1022.42 0 1021.99-0.43 1021.57-0.85 1021.57-1.8L1021.57-1.8 1021.57-9.45Q1021.57-10.55 1021.14-11.08 1020.72-11.6 1019.67-11.6L1019.67-11.6 1012.67-11.6 1012.67-1.8Q1012.67-0.85 1012.24-0.43 1011.82 0 1010.87 0ZM1055.27 0L1055.27 0 1047.17 0Q1046.22 0 1045.79-0.43 1045.37-0.85 1045.37-1.8L1045.37-1.8 1045.37-8.2 1037.72-18.45Q1036.57-20 1036.19-21.15 1035.82-22.3 1035.82-24.6L1035.82-24.6 1035.82-34.2Q1035.82-35.15 1036.24-35.58 1036.67-36 1037.62-36L1037.62-36 1045.32-36Q1046.27-36 1046.69-35.58 1047.12-35.15 1047.12-34.2L1047.12-34.2 1047.12-26Q1047.12-25.5 1047.17-24.95 1047.22-24.4 1047.57-23.9L1047.57-23.9 1049.87-20.3Q1050.12-19.85 1050.39-19.65 1050.67-19.45 1051.07-19.45L1051.07-19.45 1051.57-19.45Q1051.97-19.45 1052.24-19.65 1052.52-19.85 1052.77-20.3L1052.77-20.3 1055.07-23.9Q1055.42-24.4 1055.47-24.95 1055.52-25.5 1055.52-26L1055.52-26 1055.52-34.2Q1055.52-35.15 1055.94-35.58 1056.37-36 1057.32-36L1057.32-36 1064.77-36Q1065.72-36 1066.14-35.58 1066.57-35.15 1066.57-34.2L1066.57-34.2 1066.57-24.6Q1066.57-22.3 1066.17-21.15 1065.77-20 1064.67-18.45L1064.67-18.45 1057.07-8.15 1057.07-1.8Q1057.07-0.85 1056.64-0.43 1056.22 0 1055.27 0ZM1092.26 0L1092.26 0 1084.81 0Q1083.86 0 1083.44-0.43 1083.01-0.85 1083.01-1.8L1083.01-1.8 1083.01-34.2Q1083.01-35.15 1083.44-35.58 1083.86-36 1084.81-36L1084.81-36 1092.86-36Q1093.66-36 1094.19-35.65 1094.71-35.3 1095.16-34.5L1095.16-34.5 1099.66-26.35Q1099.91-25.9 1100.09-25.7 1100.26-25.5 1100.56-25.5L1100.56-25.5 1101.01-25.5Q1101.31-25.5 1101.49-25.7 1101.66-25.9 1101.91-26.35L1101.91-26.35 1106.36-34.5Q1106.81-35.3 1107.34-35.65 1107.86-36 1108.66-36L1108.66-36 1116.76-36Q1117.71-36 1118.14-35.58 1118.56-35.15 1118.56-34.2L1118.56-34.2 1118.56-1.8Q1118.56-0.85 1118.14-0.43 1117.71 0 1116.76 0L1116.76 0 1109.06 0Q1108.11 0 1107.69-0.43 1107.26-0.85 1107.26-1.8L1107.26-1.8 1107.26-19.4 1104.31-13.95Q1103.86-13.1 1103.24-12.73 1102.61-12.35 1101.66-12.35L1101.66-12.35 1099.66-12.35Q1098.71-12.35 1098.09-12.73 1097.46-13.1 1097.01-13.95L1097.01-13.95 1094.06-19.4 1094.06-1.8Q1094.06-0.85 1093.64-0.43 1093.21 0 1092.26 0ZM1147.76 0L1126.46 0Q1125.51 0 1125.08-0.43 1124.66-0.85 1124.66-1.8L1124.66-1.8 1124.66-7.75Q1124.66-8.7 1125.08-9.13 1125.51-9.55 1126.46-9.55L1126.46-9.55 1131.41-9.55 1131.41-26.35 1126.46-26.35Q1125.51-26.35 1125.08-26.78 1124.66-27.2 1124.66-28.15L1124.66-28.15 1124.66-34.2Q1124.66-35.15 1125.08-35.58 1125.51-36 1126.46-36L1126.46-36 1147.76-36Q1148.71-36 1149.13-35.58 1149.56-35.15 1149.56-34.2L1149.56-34.2 1149.56-28.15Q1149.56-27.2 1149.13-26.78 1148.71-26.35 1147.76-26.35L1147.76-26.35 1142.91-26.35 1142.91-9.55 1147.76-9.55Q1148.71-9.55 1149.13-9.13 1149.56-8.7 1149.56-7.75L1149.56-7.75 1149.56-1.8Q1149.56-0.85 1149.13-0.43 1148.71 0 1147.76 0L1147.76 0ZM1182.96 0L1182.96 0 1157.51 0Q1156.56 0 1156.13-0.43 1155.71-0.85 1155.71-1.8L1155.71-1.8 1155.71-34.2Q1155.71-35.15 1156.13-35.58 1156.56-36 1157.51-36L1157.51-36 1165.26-36Q1166.21-36 1166.63-35.58 1167.06-35.15 1167.06-34.2L1167.06-34.2 1167.06-9.45 1173.91-9.45 1173.91-17.55Q1173.91-18.5 1174.33-18.93 1174.76-19.35 1175.71-19.35L1175.71-19.35 1182.96-19.35Q1183.91-19.35 1184.33-18.93 1184.76-18.5 1184.76-17.55L1184.76-17.55 1184.76-1.8Q1184.76-0.85 1184.33-0.43 1183.91 0 1182.96 0ZM1215.45 0L1215.45 0 1192.25 0Q1191.3 0 1190.88-0.43 1190.45-0.85 1190.45-1.8L1190.45-1.8 1190.45-34.2Q1190.45-35.15 1190.88-35.58 1191.3-36 1192.25-36L1192.25-36 1215.45-36Q1216.4-36 1216.83-35.58 1217.25-35.15 1217.25-34.2L1217.25-34.2 1217.25-28.35Q1217.25-27.4 1216.83-26.98 1216.4-26.55 1215.45-26.55L1215.45-26.55 1201.65-26.55 1201.65-22.7 1211.4-22.7Q1212.35-22.7 1212.78-22.28 1213.2-21.85 1213.2-20.9L1213.2-20.9 1213.2-15.55Q1213.2-14.6 1212.78-14.18 1212.35-13.75 1211.4-13.75L1211.4-13.75 1201.65-13.75 1201.65-9.45 1215.45-9.45Q1216.4-9.45 1216.83-9.03 1217.25-8.6 1217.25-7.65L1217.25-7.65 1217.25-1.8Q1217.25-0.85 1216.83-0.43 1216.4 0 1215.45 0Z" opacity="1" transform="matrix(1,0,0,1,0,0)" fill="#000000" class="slogan-text-1" data-fill-palette-color="secondary" id="text-1"></path></svg></g></svg></g></svg></g></svg></g><g transform="matrix(1,0,0,1,406.43823895229184,0)"><svg viewBox="0 0 117.03055942662299 90.04217228845928" height="90.04217228845928" width="117.03055942662299"><g><svg xmlns="http://www.w3.org/2000/svg" data-name="Layer 1" viewBox="9 18.449998861164172 82 63.09000114011262" x="0" y="0" height="90.04217228845928" width="117.03055942662299" class="icon-icon-0" data-fill-palette-color="accent" id="icon-0"><path d="M86.19 73.38H13.81A1 1 0 0 1 12.81 72.38V39.23A1 1 0 0 1 14.81 39.23V71.38H85.19V39.23A1 1 0 0 1 87.19 39.23V72.38A1 1 0 0 1 86.19 73.38" fill="#000000" data-fill-palette-color="accent"></path><path d="M66.87 59.64H33.13A1 1 0 0 1 32.13 58.64V53A1 1 0 0 1 33.13 52H66.87A1 1 0 0 1 67.87 53V58.68A1 1 0 0 1 66.87 59.64M34.13 57.64H65.87V54H34.13Z" fill="#000000" data-fill-palette-color="accent"></path><path d="M28 62.48H13.81A1 1 0 1 1 13.81 60.48H27V51.12H13.81A1 1 0 1 1 13.81 49.12H28A1 1 0 0 1 29 50.12V61.48A1 1 0 0 1 28 62.48" fill="#000000" data-fill-palette-color="accent"></path><path d="M86.19 62.48H71.77A1 1 0 0 1 70.77 61.48V50.12A1 1 0 0 1 71.77 49.12H86.19A1 1 0 1 1 86.19 51.12H72.77V60.49H86.19A1 1 0 0 1 86.19 62.49Z" fill="#000000" data-fill-palette-color="accent"></path><path d="M28.1 81.54H13.81A1 1 0 0 1 12.81 80.54V72.38A1 1 0 0 1 14.81 72.38V79.55H27.1V72.38A1 1 0 0 1 29.1 72.38V80.55A1 1 0 0 1 28.1 81.54" fill="#000000" data-fill-palette-color="accent"></path><path d="M71.77 81.54A1 1 0 0 1 70.77 80.54V72.38A1 1 0 0 1 72.77 72.38V79.55H85.19V72.38A1 1 0 0 1 87.19 72.38V80.52A1 1 0 0 1 86.19 81.52H71.77Z" fill="#000000" data-fill-palette-color="accent"></path><path d="M86.19 40.23H13.81A1 1 0 0 1 13 38.68L26 18.9A1 1 0 0 1 26.83 18.45H72.83A1 1 0 0 1 73.66 18.89L87 38.67A1 1 0 0 1 86.17 40.23ZM15.67 38.23H84.31L72.31 20.46H27.41Z" fill="#000000" data-fill-palette-color="accent"></path><path d="M90 36.56H83.71A1 1 0 0 1 83.71 34.56H89V29.69H79.08A1 1 0 0 1 79.08 27.69H90A1 1 0 0 1 91 28.69V35.56A1 1 0 0 1 90 36.56" fill="#000000" data-fill-palette-color="accent"></path><path d="M16.23 36.56H10A1 1 0 0 1 9 35.56V28.69A1 1 0 0 1 10 27.69H20.77A1 1 0 0 1 20.77 29.69H11V34.56H16.23A1 1 0 0 1 16.23 36.56" fill="#000000" data-fill-palette-color="accent"></path></svg></g></svg></g></svg></g><defs></defs></svg><rect width="395.52" height="68.03362510587014" fill="none" stroke="none" visibility="hidden"></rect></g></svg></g></svg>